<svg xmlns="http://www.w3.org/2000/svg" width="512" height="512" viewBox="0 0 512 512">
  <rect width="512" height="512" fill="#faf9f7"/>
  <g transform="translate(-70.45, 330.06)">
    <path d="M154.501-148.095C153.536-148.095 152.711-147.388 152.546-146.423C151.392-139.734 150.521-116.936 145.033-107.209C141.877-101.603 137.638-104.006 136.767-107.279C133.469-119.950 132.739-133.092 132.339-146.140C132.315-147.223 131.420-148.071 130.360-148.071L94.585-148.071C93.572-148.071 92.701-147.294 92.607-146.281C91.358-133.587 89.898-120.869 86.766-108.480C85.753-104.477 78.852-104.006 78.193-108.480C76.332-121.034 73.906-133.540 73.035-146.211C72.964-147.247 72.093-148.071 71.056-148.071L6.924-148.071C5.817-148.071 4.946-147.177 4.946-146.093L4.946-145.551C4.946-145.434 4.970-145.292 4.993-145.175C8.055-129.583 8.950-113.591 10.693-97.788C12.153-84.457 18.017-33.774 19.855-21.786C20.891-14.956 21.974-8.125 23.811-1.460L23.811-1.437C24.047-0.589 24.824 0.023 25.719 0.023L101.250 0.023C102.239 0.023 103.064-0.707 103.229-1.672C104.124-7.678 106.055-29.040 108.551-37.377C110.365-43.430 117.430-43.430 118.302-35.940C119.951-21.856 119.644-14.861 122.659-1.531C122.871-0.636 123.672 0.023 124.590 0.023L198.614 0.023C199.627 0.023 200.475-0.730 200.592-1.719C201.181-6.383 201.699-11.046 202.312-15.709C203.207-22.398 212.745-122.235 218.021-145.669C218.304-146.917 217.362-148.095 216.090-148.095M402.362-134.835C399.395-137.614 386.512-147.977 367.388-147.977C344.212-147.977 269.906-148.048 269.458-148.001C254.550-146.281 240.183-139.734 231.469-127.040C226.523-119.880 221.153-106.738 221.153-91.923L221.153-51.791C221.153-37.801 228.643-22.610 235.426-16.793C243.410-9.939 262.087-1.178 276.830-0.400C277.961-0.353 352.291-0.212 353.139-0.212C369.036 0 381.872-4.239 391.246-9.162C399.065-13.283 406.036-19.218 410.817-26.708C416.305-35.328 418.519-45.503 420.168-55.488C421.086-61.235 420.262-79.088 420.262-96.752C420.262-117.524 404.341-132.998 402.362-134.835M344.024-67.689C336.158-67.100 298.333-67.924 292.257-67.429C281.423-66.582 280.952-83.327 292.799-84.811C300.571-85.800 330.199-84.999 343.129-85.399C347.227-85.517 352.597-81.207 352.597-76.874C352.597-71.127 351.490-68.230 344.024-67.689M646.644-32.313C645.678-45.220 645.419-58.173 645.537-71.104C645.772-96.422 647.303-121.717 647.421-147.035C647.421-147.624 646.926-148.119 646.337-148.119L547.537-148.119C547.019-148.119 546.595-147.765 546.477-147.271C544.145-136.507 542.308-115.311 541.978-111.307C541.625-107.185 540.730-107.562 538.728-107.020C536.986-106.549 534.230-107.162 533.712-109.069C530.532-120.798 530.485-134.317 528.460-147.223C528.389-147.742 527.918-148.142 527.400-148.142L427.139-148.142C426.503-148.142 425.985-147.600 426.056-146.964C426.079-146.776 426.079-146.588 426.079-146.376C426.079-138.792 426.291-102.310 426.432-92.135C426.574-81.961 425.114-2.661 425.114-2.638L425.114-1.130C425.114-0.542 425.608-0.047 426.197-0.047L491.789-0.047C492.401-0.047 492.873-0.542 492.873-1.154C492.590-13.119 494.945-29.840 494.615-41.499C494.498-45.832 499.561-45.479 500.810-41.239C504.672-28.145 504.602-13.731 508.134-0.848C508.252-0.377 508.700-0.047 509.171-0.047L559.478-0.047C559.972-0.047 560.396-0.377 560.538-0.871C564.047-14.767 565.978-26.684 569.746-42.582C570.500-45.785 575.375-44.137 575.375-40.933C575.399-26.567 576.600-14.390 576.153-1.178C576.129-0.565 576.624-0.047 577.236-0.047L646.879-0.047C647.468-0.047 647.962-0.542 647.962-1.130L647.962-5.205C647.962-5.252 647.962-5.323 647.939-5.370C647.421-8.314 647.091-26.331 646.644-32.313" fill="#e3735e"/>
  </g>
</svg>