<svg xmlns="http://www.w3.org/2000/svg" width="512" height="512" viewBox="0 0 512 512">
  <rect width="512" height="512" fill="#faf9f7"/>
  <g transform="translate(83.82, 295.06)">
    <path d="M81.489-78.110C80.980-78.110 80.545-77.738 80.458-77.228C79.850-73.700 79.390-61.676 76.496-56.546C74.831-53.589 72.595-54.856 72.135-56.583C70.396-63.266 70.011-70.197 69.800-77.079C69.788-77.651 69.315-78.098 68.756-78.098L49.887-78.098C49.353-78.098 48.894-77.688 48.844-77.154C48.185-70.458 47.415-63.750 45.763-57.216C45.229-55.105 41.589-54.856 41.241-57.216C40.260-63.837 38.981-70.433 38.521-77.117C38.484-77.663 38.024-78.098 37.478-78.098L3.652-78.098C3.068-78.098 2.609-77.626 2.609-77.054L2.609-76.769C2.609-76.707 2.621-76.632 2.634-76.570C4.248-68.347 4.720-59.912 5.640-51.577C6.410-44.546 9.503-17.813 10.472-11.490C11.018-7.888 11.590-4.286 12.559-0.770L12.559-0.758C12.683-0.311 13.093 0.012 13.565 0.012L53.403 0.012C53.925 0.012 54.359-0.373 54.446-0.882C54.918-4.050 55.937-15.316 57.254-19.714C58.210-22.906 61.937-22.906 62.396-18.956C63.266-11.528 63.104-7.838 64.695-0.807C64.806-0.335 65.229 0.012 65.713 0.012L104.756 0.012C105.290 0.012 105.737-0.385 105.799-0.907C106.110-3.366 106.383-5.826 106.706-8.286C107.178-11.813 112.209-64.471 114.992-76.831C115.141-77.489 114.644-78.110 113.973-78.110M212.220-71.117C210.654-72.582 203.859-78.048 193.773-78.048C181.549-78.048 142.358-78.085 142.122-78.061C134.258-77.154 126.681-73.700 122.085-67.005C119.476-63.229 116.644-56.297 116.644-48.484L116.644-27.316C116.644-19.938 120.594-11.925 124.172-8.857C128.383-5.242 138.233-0.621 146.010-0.211C146.606-0.186 185.810-0.112 186.257-0.112C194.642 0 201.412-2.236 206.356-4.832C210.481-7.006 214.157-10.136 216.679-14.087C219.573-18.633 220.741-24 221.611-29.266C222.095-32.298 221.660-41.713 221.660-51.030C221.660-61.986 213.263-70.148 212.220-71.117M181.450-35.701C177.301-35.391 157.351-35.825 154.146-35.565C148.432-35.117 148.184-43.949 154.432-44.732C158.531-45.254 174.158-44.832 180.978-45.043C183.139-45.105 185.972-42.831 185.972-40.546C185.972-37.515 185.388-35.987 181.450-35.701M341.062-17.043C340.553-23.850 340.416-30.683 340.478-37.502C340.602-50.856 341.410-64.198 341.472-77.551C341.472-77.862 341.211-78.123 340.900-78.123L288.790-78.123C288.516-78.123 288.293-77.936 288.231-77.676C287.001-71.999 286.032-60.819 285.858-58.707C285.672-56.533 285.200-56.732 284.144-56.446C283.224-56.198 281.771-56.521 281.498-57.527C279.821-63.713 279.796-70.843 278.728-77.651C278.690-77.924 278.442-78.135 278.169-78.135L225.288-78.135C224.952-78.135 224.679-77.849 224.716-77.514C224.729-77.415 224.729-77.315 224.729-77.204C224.729-73.204 224.840-53.962 224.915-48.595C224.989-43.229 224.219-1.404 224.219-1.391L224.219-0.596C224.219-0.286 224.480-0.025 224.791-0.025L259.386-0.025C259.709-0.025 259.958-0.286 259.958-0.609C259.809-6.919 261.051-15.739 260.877-21.888C260.815-24.173 263.486-23.987 264.144-21.751C266.181-14.844 266.144-7.242 268.007-0.447C268.069-0.199 268.305-0.025 268.554-0.025L295.088-0.025C295.348-0.025 295.572-0.199 295.647-0.460C297.497-7.789 298.516-14.074 300.504-22.459C300.901-24.149 303.473-23.279 303.473-21.590C303.485-14.012 304.118-7.590 303.882-0.621C303.870-0.298 304.131-0.025 304.454-0.025L341.186-0.025C341.497-0.025 341.757-0.286 341.757-0.596L341.757-2.745C341.757-2.770 341.757-2.807 341.745-2.832C341.472-4.385 341.298-13.888 341.062-17.043" fill="#e3735e"/>
  </g>
</svg>