<svg xmlns="http://www.w3.org/2000/svg" width="512" height="512" viewBox="0 0 512 512">
  <rect width="512" height="512" fill="#faf9f7"/>
  <g transform="translate(83.817, 295.061)" shape-rendering="geometricPrecision">
    <path d="M81.48915-78.11031C80.97989-78.11031 80.54512-77.73764 80.45814-77.22838C79.84953-73.70045 79.38988-61.67586 76.49555-56.54554C74.83094-53.58910 72.59496-54.85606 72.13531-56.58279C70.39622-63.26587 70.01118-70.19739 69.79998-77.07929C69.78760-77.65066 69.31547-78.09793 68.75647-78.09793L49.88733-78.09793C49.35321-78.09793 48.89356-77.68803 48.84383-77.15378C48.18548-70.45833 47.41528-63.75038 45.76316-57.21627C45.22904-55.10450 41.58938-54.85606 41.24146-57.21627C40.26018-63.83736 38.98073-70.43346 38.52109-77.11654C38.48384-77.66316 38.02420-78.09793 37.47758-78.09793L3.65215-78.09793C3.06829-78.09793 2.60865-77.62592 2.60865-77.05443L2.60865-76.76874C2.60865-76.70663 2.62114-76.63215 2.63352-76.57004C4.24839-68.34656 4.72041-59.91189 5.63969-51.57669C6.40989-44.54570 9.50293-17.81338 10.47195-11.49047C11.01845-7.88805 11.58994-4.28563 12.55884-0.77020L12.55884-0.75770C12.68306-0.31055 13.09297 0.01237 13.56499 0.01237L53.40277 0.01237C53.92452 0.01237 54.35930-0.37266 54.44628-0.88192C54.91829-4.04956 55.93693-15.31646 57.25363-19.71394C58.21016-22.90645 61.93680-22.90645 62.39644-18.95612C63.26599-11.52771 63.10440-7.83831 64.69453-0.80744C64.80626-0.33542 65.22866 0.01237 65.71305 0.01237L104.75589 0.01237C105.29002 0.01237 105.73716-0.38504 105.79928-0.90679C106.10983-3.36635 106.38314-5.82603 106.70607-8.28558C107.17820-11.81339 112.20917-64.47084 114.99165-76.83085C115.14074-77.48920 114.64385-78.11031 113.97301-78.11031M212.21966-71.11667C210.65440-72.58246 203.85947-78.04820 193.77280-78.04820C181.54938-78.04820 142.35757-78.08544 142.12150-78.06069C134.25832-77.15378 126.68082-73.70045 122.08463-67.00500C119.47599-63.22862 116.64377-56.29710 116.64377-48.48354L116.64377-27.31630C116.64377-19.93751 120.59398-11.92524 124.17153-8.85695C128.38268-5.24216 138.23340-0.62111 146.00972-0.21120C146.60596-0.18633 185.81014-0.11185 186.25741-0.11185C194.64235 0 201.41241-2.23598 206.35639-4.83226C210.48056-7.00613 214.15746-10.13641 216.67913-14.08674C219.57346-18.63319 220.74119-23.99957 221.61074-29.26648C222.09525-32.29753 221.66047-41.71348 221.66047-51.03007C221.66047-61.98641 213.26304-70.14777 212.21966-71.11667M181.45003-35.70124C177.30099-35.39069 157.35110-35.82546 154.14622-35.56452C148.43204-35.11738 148.18360-43.94946 154.43190-44.73203C158.53120-45.25378 174.15821-44.83150 180.97801-45.04258C183.13939-45.10469 185.97161-42.83147 185.97161-40.54587C185.97161-37.51482 185.38786-35.98692 181.45003-35.70124M341.06186-17.04318C340.55260-23.85048 340.41588-30.68265 340.47799-37.50245C340.60221-50.85623 341.40965-64.19753 341.47176-77.55131C341.47176-77.86186 341.21095-78.12280 340.90039-78.12280L288.78957-78.12280C288.51626-78.12280 288.29269-77.93647 288.23058-77.67553C287.00074-71.99860 286.03184-60.81868 285.85788-58.70692C285.67155-56.53305 285.19953-56.73188 284.14365-56.44619C283.22448-56.19775 281.77107-56.52068 281.49776-57.52682C279.82077-63.71314 279.79590-70.84336 278.72765-77.65066C278.69041-77.92398 278.44196-78.13518 278.16865-78.13518L225.28764-78.13518C224.95222-78.13518 224.67890-77.84949 224.71627-77.51407C224.72864-77.41472 224.72864-77.31536 224.72864-77.20352C224.72864-73.20357 224.84049-53.96177 224.91497-48.59538C224.98946-43.22900 224.21938-1.40368 224.21938-1.39130L224.21938-0.59624C224.21938-0.28568 224.48020-0.02487 224.79075-0.02487L259.38637-0.02487C259.70930-0.02487 259.95774-0.28568 259.95774-0.60873C259.80878-6.91915 261.05099-15.73886 260.87703-21.88781C260.81492-24.17341 263.48568-23.98708 264.14402-21.75109C266.18130-14.84444 266.14406-7.24208 268.00738-0.44715C268.06949-0.19871 268.30544-0.02487 268.55388-0.02487L295.08761-0.02487C295.34843-0.02487 295.57200-0.19871 295.64661-0.45964C297.49743-7.78870 298.51607-14.07425 300.50361-22.45918C300.90115-24.14866 303.47255-23.27911 303.47255-21.58963C303.48492-14.01213 304.11840-7.58987 303.88246-0.62111C303.86996-0.29818 304.13090-0.02487 304.45383-0.02487L341.18608-0.02487C341.49663-0.02487 341.75745-0.28568 341.75745-0.59624L341.75745-2.74524C341.75745-2.77011 341.75745-2.80735 341.74507-2.83222C341.47176-4.38499 341.29792-13.88791 341.06186-17.04318" fill="#e3735e" shape-rendering="geometricPrecision"/>
  </g>
</svg>