<svg xmlns="http://www.w3.org/2000/svg" width="1024" height="1024" viewBox="0 0 1024 1024">
  <rect width="1024" height="1024" fill="#faf9f7"/>
  <g transform="translate(167.6339, 575.7868)">
    <path d="M162.97830-156.22061C161.95978-156.22061 161.09023-155.47529 160.91627-154.45677C159.69905-147.40090 158.77977-123.35172 152.99110-113.09109C149.66188-107.17820 145.18991-109.71212 144.27063-113.16557C140.79243-126.53173 140.02236-140.39478 139.59995-154.15859C139.57521-155.30133 138.63093-156.19587 137.51294-156.19587L99.77467-156.19587C98.70641-156.19587 97.78713-155.37606 97.68765-154.30756C96.37095-140.91665 94.83056-127.50075 91.52632-114.43253C90.45807-110.20901 83.17875-109.71212 82.48292-114.43253C80.52037-127.67471 77.96146-140.86691 77.04217-154.23307C76.96769-155.32632 76.04840-156.19587 74.95516-156.19587L7.30431-156.19587C6.13658-156.19587 5.21729-155.25183 5.21729-154.10885L5.21729-153.53748C5.21729-153.41326 5.24228-153.26429 5.26703-153.14007C8.49678-136.69313 9.44082-119.82378 11.27939-103.15339C12.81978-89.09139 19.00585-35.62676 20.94390-22.98093C22.03690-15.77610 23.17988-8.57127 25.11769-1.54039L25.11769-1.51540C25.36613-0.62111 26.18594 0.02475 27.12997 0.02475L106.80554 0.02475C107.84905 0.02475 108.71860-0.74533 108.89255-1.76384C109.83659-8.09913 111.87387-30.63292 114.50726-39.42788C116.42031-45.81290 123.87359-45.81290 124.79288-37.91223C126.53197-23.05542 126.20880-15.67663 129.38906-1.61488C129.61252-0.67084 130.45732 0.02475 131.42610 0.02475L209.51178 0.02475C210.58003 0.02475 211.47433-0.77007 211.59855-1.81358C212.21966-6.73270 212.76628-11.65205 213.41213-16.57117C214.35641-23.62679 224.41833-128.94167 229.98330-153.66170C230.28148-154.97840 229.28771-156.22061 227.94602-156.22061M424.43931-142.23335C421.30879-145.16492 407.71894-156.09639 387.54560-156.09639C363.09876-156.09639 284.71514-156.17088 284.24300-156.12138C268.51664-154.30756 253.36164-147.40090 244.16927-134.01000C238.95198-126.45725 233.28754-112.59420 233.28754-96.96707L233.28754-54.63261C233.28754-39.87503 241.18796-23.85048 248.34306-17.71390C256.76535-10.48432 276.46680-1.24221 292.01945-0.42240C293.21192-0.37266 371.62029-0.22370 372.51483-0.22370C389.28470 0 402.82481-4.47197 412.71278-9.66451C420.96112-14.01226 428.31492-20.27281 433.35826-28.17348C439.14692-37.26638 441.48237-47.99915 443.22147-58.53296C444.19050-64.59506 443.32095-83.42695 443.32095-102.06014C443.32095-123.97282 426.52609-140.29554 424.43931-142.23335M362.90005-71.40248C354.60197-70.78137 314.70220-71.65092 308.29243-71.12905C296.86408-70.23475 296.36719-87.89892 308.86380-89.46406C317.06240-90.50756 348.31643-89.66301 361.95602-90.08516C366.27877-90.20939 371.94321-85.66294 371.94321-81.09174C371.94321-75.02964 370.77573-71.97385 362.90005-71.40248M682.12371-34.08636C681.10519-47.70097 680.83176-61.36530 680.95598-75.00490C681.20443-101.71247 682.81930-128.39505 682.94352-155.10262C682.94352-155.72373 682.42189-156.24560 681.80079-156.24560L577.57914-156.24560C577.03252-156.24560 576.58537-155.87294 576.46115-155.35107C574.00147-143.99719 572.06367-121.63737 571.71575-117.41384C571.34309-113.06610 570.39906-113.46375 568.28730-112.89238C566.44897-112.39550 563.54214-113.04135 562.99552-115.05364C559.64154-127.42627 559.59181-141.68673 557.45530-155.30133C557.38081-155.84795 556.88393-156.27035 556.33731-156.27035L450.57527-156.27035C449.90443-156.27035 449.35781-155.69898 449.43254-155.02814C449.45728-154.82943 449.45728-154.63073 449.45728-154.40703C449.45728-146.40713 449.68098-107.92353 449.82995-97.19077C449.97892-86.45800 448.43877-2.80735 448.43877-2.78260L448.43877-1.19248C448.43877-0.57137 448.96040-0.04974 449.58150-0.04974L518.77275-0.04974C519.41860-0.04974 519.91549-0.57137 519.91549-1.21747C519.61755-13.83830 522.10198-31.47772 521.75406-43.77562C521.62984-48.34682 526.97135-47.97416 528.28805-43.50219C532.36260-29.68888 532.28812-14.48415 536.01476-0.89430C536.13898-0.39741 536.61087-0.04974 537.10776-0.04974L590.17523-0.04974C590.69686-0.04974 591.14401-0.39741 591.29322-0.91929C594.99487-15.57740 597.03215-28.14849 601.00723-44.91836C601.80229-48.29732 606.94510-46.55823 606.94510-43.17926C606.96985-28.02427 608.23681-15.17974 607.76491-1.24221C607.73992-0.59636 608.26180-0.04974 608.90765-0.04974L682.37215-0.04974C682.99326-0.04974 683.51489-0.57137 683.51489-1.19248L683.51489-5.49048C683.51489-5.54022 683.51489-5.61470 683.49015-5.66444C682.94352-8.76997 682.59585-27.77583 682.12371-34.08636" fill="#e3735e"/>
  </g>
</svg>