<svg xmlns="http://www.w3.org/2000/svg" width="1024" height="1024" viewBox="0 0 1024 1024">
  <rect width="1024" height="1024" fill="#faf9f7"/>
  <g transform="translate(64.9063, 601.1396)">
    <path d="M211.59622-202.82266C210.27387-202.82266 209.14493-201.85499 208.91908-200.53264C207.33875-191.37195 206.14523-160.14866 198.62975-146.82720C194.30739-139.15045 188.50139-142.44026 187.30788-146.92390C182.79210-164.27731 181.79231-182.27583 181.24390-200.14551C181.21177-201.62914 179.98581-202.79053 178.53431-202.79053L129.53836-202.79053C128.15144-202.79053 126.95792-201.72616 126.82877-200.33892C125.11929-182.95338 123.11939-165.53540 118.82947-148.56881C117.44254-143.08537 107.99174-142.44026 107.08833-148.56881C104.54033-165.76125 101.21808-182.88881 100.02456-200.24222C99.92786-201.66158 98.73434-202.79053 97.31497-202.79053L9.48325-202.79053C7.96718-202.79053 6.77366-201.56488 6.77366-200.08094L6.77366-199.33912C6.77366-199.17785 6.80610-198.98444 6.83823-198.82316C11.03145-177.46994 12.25710-155.56832 14.64413-133.92499C16.64404-115.66817 24.67547-46.25454 27.19166-29.83636C28.61071-20.48226 30.09465-11.12815 32.61052-1.99991L32.61052-1.96746C32.93308-0.80639 33.99745 0.03213 35.22309 0.03213L138.66661 0.03213C140.02141 0.03213 141.15035-0.96767 141.37620-2.29002C142.60185-10.51517 145.24687-39.77100 148.66583-51.18958C151.14956-59.47931 160.82622-59.47931 162.01974-49.22180C164.27762-29.93306 163.85805-20.35311 167.98701-2.09661C168.27712-0.87096 169.37393 0.03213 170.63171 0.03213L272.01107 0.03213C273.39799 0.03213 274.55906-0.99980 274.72034-2.35459C275.52673-8.74112 276.23641-15.12797 277.07493-21.51450C278.30089-30.67488 291.36438-167.40616 298.58943-199.50040C298.97656-201.20988 297.68634-202.82266 295.94441-202.82266M551.05346-184.66286C546.98907-188.46895 529.34524-202.66138 503.15401-202.66138C471.41445-202.66138 369.64828-202.75808 369.03530-202.69382C348.61761-200.33892 328.94175-191.37195 317.00720-173.98641C310.23354-164.18061 302.87935-146.18209 302.87935-125.89324L302.87935-70.93002C302.87935-51.77011 313.13654-30.96530 322.42607-22.99812C333.36082-13.61189 358.93938-1.61278 379.13153-0.54841C380.67973-0.48383 482.47803-0.29043 483.63942-0.29043C505.41189 0 522.99115-5.80599 535.82879-12.54752C546.53768-18.19224 556.08519-26.32038 562.63300-36.57789C570.14847-48.38328 573.18062-62.31773 575.43851-75.99388C576.69660-83.86436 575.56765-108.31398 575.56765-132.50562C575.56765-160.95505 553.76273-182.14699 551.05346-184.66286M471.15647-92.70250C460.38300-91.89611 408.58076-93.02505 400.25889-92.34750C385.42135-91.18642 384.77624-114.11997 401.00071-116.15201C411.64503-117.50680 452.22241-116.41030 469.93082-116.95840C475.54309-117.11967 482.89729-111.21698 482.89729-105.28215C482.89729-97.41168 481.38153-93.44431 471.15647-92.70250M885.60748-44.25464C884.28513-61.93060 883.93013-79.67114 884.09140-97.37955C884.41396-132.05423 886.51057-166.69647 886.67185-201.37116C886.67185-202.17755 885.99461-202.85510 885.18822-202.85510L749.87630-202.85510C749.16662-202.85510 748.58608-202.37127 748.42481-201.69371C745.23138-186.95288 742.71552-157.92291 742.26381-152.43947C741.77998-146.79475 740.55433-147.31103 737.81261-146.56922C735.42589-145.92411 731.65193-146.76262 730.94225-149.37519C726.58775-165.43870 726.52318-183.95318 723.74933-201.62914C723.65263-202.33882 723.00752-202.88723 722.29783-202.88723L584.98601-202.88723C584.11505-202.88723 583.40537-202.14542 583.50239-201.27446C583.53452-201.01647 583.53452-200.75849 583.53452-200.46807C583.53452-190.08173 583.82494-140.11811 584.01835-126.18366C584.21176-112.24922 582.21217-3.64481 582.21217-3.61268L582.21217-1.54820C582.21217-0.74181 582.88941-0.06457 583.69579-0.06457L673.52742-0.06457C674.36594-0.06457 675.01105-0.74181 675.01105-1.58065C674.62424-17.96639 677.84979-40.86781 677.39808-56.83429C677.23681-62.76912 684.17174-62.28529 685.88122-56.47929C691.17125-38.54535 691.07455-18.80491 695.91288-1.16107C696.07416-0.51596 696.68682-0.06457 697.33193-0.06457L766.22992-0.06457C766.90716-0.06457 767.48769-0.51596 767.68142-1.19352C772.48730-20.22428 775.13231-36.54544 780.29320-58.31792C781.32544-62.70486 788.00239-60.44697 788.00239-56.06003C788.03452-36.38417 789.67943-19.70800 789.06676-1.61278C789.03432-0.77426 789.71187-0.06457 790.55039-0.06457L885.93003-0.06457C886.73642-0.06457 887.41366-0.74181 887.41366-1.54820L887.41366-7.12834C887.41366-7.19292 887.41366-7.28962 887.38153-7.35420C886.67185-11.38614 886.22046-36.06161 885.60748-44.25464" fill="#e3735e"/>
  </g>
</svg>