<svg xmlns="http://www.w3.org/2000/svg" width="1024" height="1024" viewBox="0 0 1024 1024">
  <rect width="1024" height="1024" fill="#faf9f7"/>
  <path d="
    M 200.70399999999995 704.512
    L 200.70399999999995 294.912
    L 299.0079999999999 294.912
    L 295.1304533333333 524.288
    L 291.2529066666667 294.912
    L 389.5569066666667 294.912
    L 389.5569066666667 704.512
    L 291.2529066666667 704.512
    L 291.2529066666667 573.44
    L 295.1304533333333 704.512
    L 299.0079999999999 573.44
    L 299.0079999999999 704.512
    Z 
    M 425.12766293333334 499.712
    A 86.87233706666669 86.87233706666669 0 1 0 598.8723370666667 499.712
    A 86.87233706666669 86.87233706666669 0 1 0 425.12766293333334 499.712
    M 475.513618432 499.712
    A 36.486381568000006 36.486381568000006 0 1 1 548.486381568 499.712
    A 36.486381568000006 36.486381568000006 0 1 1 475.513618432 499.712
    Z 
    M 634.4430933333333 704.512
    L 634.4430933333333 294.912
    L 732.7470933333333 294.912
    L 728.8695466666667 475.13599999999997
    L 724.9920000000001 294.912
    L 823.296 294.912
    L 823.296 704.512
    L 724.9920000000001 704.512
    L 724.9920000000001 524.288
    L 728.8695466666667 704.512
    L 732.7470933333333 524.288
    L 732.7470933333333 704.512
    Z" fill="#e3735e" fill-rule="evenodd"/>
</svg>