<svg xmlns="http://www.w3.org/2000/svg" width="512" height="512" viewBox="0 0 512 512">
  <rect width="512" height="512" fill="#faf9f7"/>
  <g transform="translate(32.4532, 300.5698)">
    <path d="M105.79811-101.41133C105.13694-101.41133 104.57246-100.92750 104.45954-100.26632C103.66937-95.68597 103.07261-80.07433 99.31488-73.41360C97.15369-69.57522 94.25070-71.22013 93.65394-73.46195C91.39605-82.13865 90.89615-91.13791 90.62195-100.07276C90.60589-100.81457 89.99291-101.39526 89.26716-101.39526L64.76918-101.39526C64.07572-101.39526 63.47896-100.86308 63.41439-100.16946C62.55965-91.47669 61.55969-82.76770 59.41473-74.28440C58.72127-71.54268 53.99587-71.22013 53.54417-74.28440C52.27017-82.88063 50.60904-91.44440 50.01228-100.12111C49.96393-100.83079 49.36717-101.39526 48.65749-101.39526L4.74162-101.39526C3.98359-101.39526 3.38683-100.78244 3.38683-100.04047L3.38683-99.66956C3.38683-99.58892 3.40305-99.49222 3.41912-99.41158C5.51573-88.73497 6.12855-77.78416 7.32207-66.96249C8.32202-57.83409 12.33774-23.12727 13.59583-14.91818C14.30536-10.24113 15.04733-5.56408 16.30526-0.99995L16.30526-0.98373C16.46654-0.40319 16.99872 0.01606 17.61155 0.01606L69.33331 0.01606C70.01070 0.01606 70.57518-0.48383 70.68810-1.14501C71.30093-5.25759 72.62343-19.88550 74.33291-25.59479C75.57478-29.73965 80.41311-29.73965 81.00987-24.61090C82.13881-14.96653 81.92902-10.17655 83.99350-1.04830C84.13856-0.43548 84.68697 0.01606 85.31585 0.01606L136.00553 0.01606C136.69900 0.01606 137.27953-0.49990 137.36017-1.17730C137.76336-4.37056 138.11821-7.56398 138.53747-10.75725C139.15045-15.33744 145.68219-83.70308 149.29471-99.75020C149.48828-100.60494 148.84317-101.41133 147.97221-101.41133M275.52673-92.33143C273.49454-94.23447 264.67262-101.33069 251.57700-101.33069C235.70722-101.33069 184.82414-101.37904 184.51765-101.34691C174.30881-100.16946 164.47087-95.68597 158.50360-86.99320C155.11677-82.09030 151.43967-73.09104 151.43967-62.94662L151.43967-35.46501C151.43967-25.88506 156.56827-15.48265 161.21303-11.49906C166.68041-6.80595 179.46969-0.80639 189.56576-0.27420C190.33986-0.24192 241.23901-0.14521 241.81971-0.14521C252.70595 0 261.49558-2.90300 267.91439-6.27376C273.26884-9.09612 278.04260-13.16019 281.31650-18.28894C285.07424-24.19164 286.59031-31.15887 287.71925-37.99694C288.34830-41.93218 287.78383-54.15699 287.78383-66.25281C287.78383-80.47753 276.88137-91.07350 275.52673-92.33143M235.57823-46.35125C230.19150-45.94805 204.29038-46.51253 200.12945-46.17375C192.71068-45.59321 192.38812-57.05999 200.50035-58.07600C205.82252-58.75340 226.11121-58.20515 234.96541-58.47920C237.77155-58.55984 241.44864-55.60849 241.44864-52.64107C241.44864-48.70584 240.69077-46.72215 235.57823-46.35125M442.80374-22.12732C442.14256-30.96530 441.96506-39.83557 442.04570-48.68977C442.20698-66.02712 443.25528-83.34824 443.33592-100.68558C443.33592-101.08877 442.99730-101.42755 442.59411-101.42755L374.93815-101.42755C374.58331-101.42755 374.29304-101.18563 374.21240-100.84686C372.61569-93.47644 371.35776-78.96145 371.13191-76.21973C370.88999-73.39738 370.27717-73.65552 368.90631-73.28461C367.71295-72.96205 365.82597-73.38131 365.47113-74.68760C363.29388-82.71935 363.26159-91.97659 361.87467-100.81457C361.82631-101.16941 361.50376-101.44362 361.14892-101.44362L292.49301-101.44362C292.05753-101.44362 291.70268-101.07271 291.75119-100.63723C291.76726-100.50824 291.76726-100.37925 291.76726-100.23403C291.76726-95.04086 291.91247-70.05906 292.00917-63.09183C292.10588-56.12461 291.10608-1.82241 291.10608-1.80634L291.10608-0.77410C291.10608-0.37091 291.44470-0.03229 291.84790-0.03229L336.76371-0.03229C337.18297-0.03229 337.50552-0.37091 337.50552-0.79032C337.31212-8.98319 338.92489-20.43390 338.69904-28.41715C338.61840-31.38456 342.08587-31.14264 342.94061-28.23965C345.58563-19.27267 345.53728-9.40245 347.95644-0.58054C348.03708-0.25798 348.34341-0.03229 348.66597-0.03229L383.11496-0.03229C383.45358-0.03229 383.74385-0.25798 383.84071-0.59676C386.24365-10.11214 387.56616-18.27272 390.14660-29.15896C390.66272-31.35243 394.00120-30.22349 394.00120-28.03002C394.01726-18.19208 394.83971-9.85400 394.53338-0.80639C394.51716-0.38713 394.85594-0.03229 395.27520-0.03229L442.96502-0.03229C443.36821-0.03229 443.70683-0.37091 443.70683-0.77410L443.70683-3.56417C443.70683-3.59646 443.70683-3.64481 443.69077-3.67710C443.33592-5.69307 443.11023-18.03081 442.80374-22.12732" fill="#e3735e"/>
  </g>
</svg>